<svg width="164" height="131" viewBox="0 0 164 131" fill="none" xmlns="http://www.w3.org/2000/svg"><path d="M20.84 27.198C-9.976 57.654.07 103.907 8.944 123.226l2.266 13.069L172.653 138c6.231-28.979 14.275-92.506-3.398-114.78C147.162-4.622 59.36-10.873 20.84 27.198z" fill="#232C63"/><path d="M63.266 61.009c.7.875 1.487 1.837 2.187 2.8.438.962 1.4 1.487 2.188 1.225.7-.175 1.05-.788 1.137-.963.263-.437.35-.787.35-1.05 0-1.4-1.925-2.712-4.812-3.325l-1.05 1.313z" fill="#F26C5A"/><path d="M65.715 60.571c-.35.525-.7.963-1.05 1.488-3.938-1.313-8.925-3.5-13.738-7.438a51.468 51.468 0 0 1-3.15-2.887c.963-1.225 2.013-2.363 2.975-3.587 1.313.7 2.275 1.312 2.8 1.75 4.55 3.325 5.425 6.387 9.888 9.362 1.137.612 1.925 1.05 2.275 1.312z" fill="#F26C5A"/><path d="M53.555 57.334c.612.438 1.312.875 2.012 1.4a33.136 33.136 0 0 0 7.613 3.413c.437-1.05.787-2.1 1.225-3.238-3.238-3.062-6.563-6.125-9.8-9.1-.35 2.538-.7 5.075-1.05 7.525z" fill="#F7E3BF"/><path d="M35.879 62.846c1.225 4.55 5.6 7.263 9.625 6.213 4.025-1.05 6.387-5.688 5.162-10.237-1.225-4.55-5.6-7.263-9.625-6.213-4.025 1.138-6.387 5.775-5.162 10.237z" fill="#F26C5A"/><path d="M49.177 88.922l7.088-1.838a68.05 68.05 0 0 0-.175-10.237 71.779 71.779 0 0 0-4.025-17.588c-3.588 3.063-7.175 6.125-10.85 9.275.087 2.975.7 5.163 1.137 6.738.525 1.662 1.138 2.975 5.25 10.675.7 1.225 1.225 2.187 1.575 2.975zM57.227 124.709h14.087c.088 0 .525-.175.613-.613.087-.437-.175-.875-.613-1.137a23.118 23.118 0 0 1-3.325-.613c-1.312-.35-2.712-.787-4.2-1.925-.612-.525-1.575-1.312-2.45-2.712-1.137-.088-2.187-.175-3.325-.175 0 2.537-.525 3.937-1.05 4.812-.175.35-.787 1.138-.524 1.838.175.175.525.437.787.525z" fill="#F26C5A"/><path d="M42.265 49.547l-3.675 3.675c3.762 3.5 7.525 7 11.287 10.412.525-.7 1.138-1.75 1.663-3.062.7-1.75.7-3.238.787-5.075.088-2.188.35-4.463.263-6.65 0-2.888.525-7.35 3.15-14.438l-5.25-8.4c-.35-.35-1.663-1.662-1.838-3.762 0-.263-.087-.525 0-.788 0-1.575.7-2.8.963-3.15-.525-.175-1.05-.437-1.575-.612-.788-.35-1.575-.613-2.363-.963-1.4 2.888-2.8 5.688-4.2 8.575-.7 1.138-1.575 2.975-1.75 5.25-.437 3.85 1.313 6.038 2.188 10.675.35 1.925.7 4.725.35 8.313z" fill="#F26C5A"/><path d="M49.264 36.685a3.886 3.886 0 0 0 3.412 4.2 3.886 3.886 0 0 0 4.2-3.413 3.886 3.886 0 0 0-3.412-4.2c-2.1-.175-4.025 1.313-4.2 3.413zM32.379 87.609c2.362.7 4.637 1.4 7 2.1 1.75-2.538 3.5-5.425 5.075-8.838 3.062-6.387 4.725-12.337 5.6-17.15-4.638.788-9.363 1.576-14 2.276a25.006 25.006 0 0 0-2.45 6.3c-.438 1.75-.613 3.15-1.05 11.812-.088 1.488-.175 2.625-.175 3.5z" fill="#F26C5A"/><path d="M19.078 115.609c.963.525 2.013 1.05 2.975 1.575a139.731 139.731 0 0 1 9.013-15.925c2.8-4.287 5.6-8.137 8.312-11.55-2.275-.787-4.55-1.487-6.825-2.275a51.725 51.725 0 0 0-4.2 3.938c-1.4 1.575-3.237 3.587-4.637 6.387-2.188 4.55-1.05 6.737-3.413 14.437-.437 1.488-.875 2.713-1.225 3.413zM58.278 118.671c1.05-.262 2.188-.525 3.238-.875a115.63 115.63 0 0 1-4.025-17.85c-.7-4.637-1.05-9.012-1.225-12.95-2.363.613-4.725 1.138-7 1.75-.263 1.488-.438 3.413-.438 5.776 0 2.1 0 4.9.875 7.787 1.4 4.812 3.763 5.687 7.175 12.95.613 1.487 1.138 2.712 1.4 3.412z" fill="#F26C5A"/><path d="M15.404 121.996c2.625 1.75 5.25 3.413 7.787 5.163 1.663.175 3.413.35 5.075.525.088 0 .525 0 .788-.35.262-.35.262-.875-.088-1.313-2.1 0-3.15-.787-3.675-1.225-.262-.175-.962-.875-2.187-4.2-.525-1.4-.875-2.625-1.138-3.5-.962-.525-2.012-1.05-2.975-1.575-1.05 2.275-2.1 3.413-2.887 3.938-.35.262-1.138.7-1.225 1.487.087.525.35.875.525 1.05z" fill="#F26C5A"/><path d="M48.215 20.847l.525.525c0-1.575.7-2.8.962-3.15-.525-.175-1.05-.438-1.575-.613l-.087.088c-.788.612-.7 2.012.175 3.15z" fill="#1A202E"/><path d="M45.327 17.434c1.225.7 2.275 1.226 3.15 1.575.175.088 1.4.613 2.712.613.35 0 .788 0 1.05-.262.438-.438.35-.963.35-.963.088-.087.088-.175.175-.175.175-.088.263.087.525 0 .175-.088.35-.263.263-.525 0-.087-.088-.175-.175-.262.087 0 .437-.088.525-.438.087-.175 0-.262 0-.35-.088-.175-.175-.262-.263-.525-.525-1.225-.35-2.537-.087-3.062 0-.088.175-.263.262-.613 0-.087.088-.262.088-.35a4.392 4.392 0 0 0 .087-2.1c-.175-1.137-.612-1.925-.962-2.537-.35-.613-1.138-1.663-2.363-2.363-2.275-1.225-6.125-1.225-7.962 1.225-1.837 2.538-.7 6.388.613 7.613.174.175.875.787 1.4 1.75.35.7.524 1.312.612 1.75z" fill="#F26C5A"/><path d="M53.377 15.947a.668.668 0 0 1 .438-.175c.175-.088.262 0 .437-.088.088 0 .175-.087.263-.262 0 0 .087-.175.087-.438 0-.262-.262-.437-.35-.524-.175-.176-.437-.526-.787-1.313-.175.438-.263.875-.438 1.313.175.524.263 1.05.35 1.487z" fill="#F26C5A"/><path d="M51.19 13.06c-.088-.088-.088-.088-.088-.175.175-.175.437-.525 1.05-.7.525-.088.962 0 1.137.087.087 0 .088.088.088.175 0 .088-.088.088-.175.088-.175-.088-.613-.175-1.05-.088a2.26 2.26 0 0 0-.963.613c.088 0 .088 0 0 0z" fill="#000"/><path d="M52.238 12.798c0 .35.175.7.35.7.263 0 .438-.263.525-.613 0-.35-.175-.7-.35-.7-.262-.087-.437.175-.525.613z" fill="#1A202E"/><path d="M52.765 17.522c-.088 0-.175 0-.35-.087l-.263-.263v-.175h.175c.088.088.088.175.175.175.175.088.35 0 .438 0 .087 0 .087 0 .175.088 0 .087 0 .087-.088.175 0 0-.087.087-.262.087z" fill="#000"/><path d="M53.116 16.997l-.35.35c.087.088.35.175.612.088 0 0 .525-.175.613-.525 0-.088 0-.35-.088-.35-.175-.088-.525.175-.787.437z" fill="#D82E2E"/><path d="M53.027 10.521s.263.088.35.35c.088.175 0 .35 0 .438l-.35-.787zM52.94 10.522c0 .088.087.262.175.35.087.262.175.262.175.35-.088.175-.788-.175-1.575-.175-.525 0-1.05.087-1.313.175.088-.088.088-.175.175-.262.7-.788 2.1-.526 2.363-.438z" fill="#1A202E"/><path d="M52.763 18.222l-.437-.087c-.088 0-.088-.088-.088-.175 0-.088.088-.088.175-.088l.438.088c.087 0 .087.087.087.175-.087.087-.175.087-.175.087z" fill="#000"/><path d="M46.904 13.235c-.087.963.438 1.838 1.138 1.925.7.088 1.4-.7 1.487-1.662.088-.963-.438-1.838-1.138-1.925-.7-.088-1.4.7-1.487 1.662z" fill="#F26C5A"/><path d="M48.127 15.247h-.087c-.438 0-.875-.437-1.138-.962 0-.088 0-.088.088-.175.087 0 .087 0 .175.087.175.438.525.788.962.788.175 0 .35 0 .525-.088h.175v.175c-.262.088-.525.175-.7.175z" fill="#000"/><path d="M46.991 14.11c-.087 0-.087 0-.087-.088-.088-.175-.088-.437-.088-.7 0-.087.088-.087.088-.087.087 0 .087.087.087.087 0 .175 0 .438.088.613 0 .087 0 .175-.088.175zM46.904 13.147c-.088 0-.088-.087-.088-.087.175-.963.875-1.663 1.575-1.575.175 0 .35.087.438.175.087 0 .087.087 0 .175 0 .087-.088.087-.175 0-.088-.088-.263-.088-.35-.088h-.088c-.612 0-1.137.613-1.225 1.4h-.087z" fill="#000"/><path d="M48.39 14.373c-.088 0-.088 0-.088-.088l-.525-1.662c0-.088 0-.088.088-.175.087 0 .087 0 .175.087l.525 1.663c0 .087-.088.087-.175.175z" fill="#000"/><path d="M48.13 13.323c-.087-.088-.087-.088-.087-.175l.35-.525c0-.088.087-.088.175 0 .088 0 .088.087 0 .175l-.438.525c.088 0 .088 0 0 0z" fill="#000"/><path d="M31.679 86.91c-6.738 4.724-9.013 9.187-9.888 12.424-.35 1.4-.437 2.45-1.225 5.95a148.454 148.454 0 0 1-2.625 10.237c1.4.525 2.8 1.138 4.2 1.663 5.6-8.663 11.2-17.237 16.8-25.9 2.363-3.062 5.513-8.137 7.613-14.962a47.278 47.278 0 0 0 1.837-18.9c-2.187-2.45-4.375-4.9-6.562-7.438-1.225.788-5.513 3.938-6.738 9.538-.437 2.187-.262 4.112 0 5.512a76.217 76.217 0 0 0-2.625 10.675c-.7 4.2-.875 8.05-.787 11.2z" fill="#7A7A7A"/><path d="M48.214 89.272c-.438 4.812.175 8.487.788 11.024.437 1.925 1.05 3.238 6.124 15.313.263.612.963 2.275 1.226 2.887 1.75-.175 3.5-.35 5.25-.612-1.488-9.975-2.976-19.95-4.55-29.838a88.92 88.92 0 0 0-1.313-17.062c-.875-5.075-2.1-9.537-3.412-13.3l-10.5-7.612-.788 20.475c2.362 6.212 4.813 12.512 7.175 18.725z" fill="#7A7A7A"/><path d="M44.978 80.784c-.087 0-.087-.087-.087-.175l4.025-12.95c0-.087.087-.087.175-.087.087 0 .087.087.087.175l-4.025 12.95c-.087.087-.175.087-.175.087zM32.727 89.796s-.087 0-.087-.087l-1.05-2.275c0-.088 0-.088.087-.175.088 0 .088 0 .175.087l1.05 2.275a.188.188 0 0 1-.175.175c.088 0 0 0 0 0z" fill="#000"/><path d="M34.828 55.847c.175.437 2.888 6.124 9.188 7.175 5.6.962 9.625-2.45 10.15-2.888.787-6.737 1.662-13.387 2.45-20.125.087-.262.262-.7.35-1.225.437-2.45-.613-4.55-1.488-6.037-2.625-4.638-5.688-9.013-6.738-10.5-1.662-.525-3.324-.963-4.987-1.488-1.137 1.138-2.712 2.975-3.85 5.513-2.187 4.725-1.75 8.837-1.837 12.425 0 4.025-.613 9.8-3.238 17.15z" fill="#F7E3BF"/><path d="M42.09 22.597c2.537.35 5.075.7 7.612 1.137-.175-.962-.35-1.925-.525-2.975-1.925-.437-3.85-.962-5.775-1.4-.35 1.05-.875 2.188-1.312 3.238z" fill="#FDBD1A"/><path d="M36.316 46.047l1.663-.438c-.788-3.5-.875-6.912-.088-10.325 1.138-4.987 4.2-12.162 7.438-11.987 3.237.175 5.425 7.612 5.862 12.25.35 3.325-.087 6.037-.437 7.875.612-.088 1.137-.088 1.75-.175.35-1.663.787-3.325 1.137-5.075-.262-2.188-.525-4.375-.7-6.563-.525-2.275-2.362-8.662-6.737-9.887-.263-.088-.438-.088-.7-.175-3.85-.438-8.05 7.437-9.363 13.3-.787 3.762-.7 7.437.175 11.2z" fill="#FF7717"/><path d="M31.941 53.397c3.15 4.112 8.313 6.125 13.213 5.075 5.95-1.225 8.662-6.388 9.012-7.088-.875-4.9-1.75-9.887-2.625-14.787-5.25.35-10.412.7-15.662 1.05l-3.938 15.75z" fill="#FF7717"/><path d="M41.215 46.397c.787 1.312 1.575 2.712 2.362 4.025a30.715 30.715 0 0 0 3.763-1.925c4.462-2.625 7.875-5.688 10.325-8.575.175-.438.437-.788.612-1.138 0-.175-.087-.875-.35-1.837a12 12 0 0 1-1.75 1.4c-.262.175-.612.437-.875.612-4.025 2.625-7.087 2.538-11.462 5.425-.613.438-1.575 1.05-2.625 2.013z" fill="#F26C5A"/><path d="M43.753 45.172c-1.487-.525-2.975-.963-4.375-1.488-.35-3.237-.525-7.087-.087-11.375.175-1.75.437-3.412.7-4.9.7-2.712 2.887-4.024 4.025-3.587.962.35 1.75 2.188 1.312 4.375a531.04 531.04 0 0 0-1.575 16.975z" fill="#F26C5A"/><path d="M36.84 43.51c2.8.087 5.687.087 8.487.175l2.1-17.063c-.087-1.575-.787-3.062-2.012-3.587-1.75-.788-4.55.35-5.6 3.237-.963 5.775-2.013 11.463-2.975 17.238z" fill="#F7E3BF"/><path d="M36.841 43.51c-.087.612-.262 3.762 1.925 5.95 0 0 1.488 1.487 3.938 1.837 4.375.7 9.8-3.325 14.175-9.713a42.445 42.445 0 0 1-1.75-2.45 2364.913 2364.913 0 0 0-13.3 4.463c-1.75-.088-3.325-.088-4.988-.088z" fill="#F7E3BF"/><path d="M44.627 42.634c-.088 0-.088 0-.088-.087 0-.088 0-.088.088-.175l.787-.263c.088 0 .088 0 .175.088 0 .087 0 .087-.087.175l-.875.262zM52.767 46.572c-.087-.088-.087-.175-.087-.175l3.5-4.113c0-.087.087-.087.175 0 .087 0 .087.088 0 .175l-3.588 4.113c.088 0 .088 0 0 0zM52.502 40.36s-.088 0-.088-.088 0-.088.088-.175l1.662-.875c.088 0 .088 0 .175.087 0 .088 0 .088-.087.175l-1.75.875z" fill="#000"/><path d="M55.742 124.709h17.063c0-.35-.088-.875-.438-1.313-.7-1.05-2.187-1.137-3.237-1.225-1.313-.175-3.15-.612-5.338-1.75-1.662 1.05-2.975 1.225-3.85 1.138-1.312-.088-2.537-.613-3.5.087-.35.263-.612.613-.7.875v2.188zM21.878 127.684h8.313c.087-.263.175-.525.262-.875-.175-.35-.438-.875-.875-1.225-1.488-1.313-3.762-.613-3.937-.613l-3.15-6.037c-1.138 1.925-1.75 2.275-2.1 2.187-.613-.175-.438-1.487-1.663-2.625-.437-.437-.875-.7-1.137-.787-1.138 1.225-2.275 2.45-3.325 3.675 2.625 2.1 5.075 4.2 7.612 6.3z" fill="#F7E3BF"/><path d="M63.7 122.171s-.087 0-.087-.087v-.175l1.925-1.4h.175v.175l-2.012 1.487zM64.142 122.784s-.087 0-.087-.088v-.175l1.925-1.4h.175v.175l-2.013 1.488c.088 0 .088 0 0 0zM21.705 122.521s-.088 0-.088-.087c0-.088 0-.088.088-.175l2.187-1.138c.088 0 .088 0 .175.088 0 .087 0 .087-.087.175l-2.275 1.137zM22.228 123.396s-.087 0-.087-.087c0-.088 0-.088.087-.175l2.188-1.138c.087 0 .087 0 .175.088 0 .087 0 .087-.088.175l-2.275 1.137c.088 0 0 0 0 0z" fill="#000"/><path d="M53.202 6.41c-1.925 5.512-3.5 7-4.637 6.912-.7 0-1.313-.613-1.663-.263-.7.525 1.225 2.8.525 4.988-.35 1.312-1.4 1.837-2.275 2.537-2.187 1.663-3.062 3.85-4.987 8.225-3.15 7.525-1.05 10.238-4.113 13.125-1.837 1.75-4.987 3.063-6.825 1.925-2.887-1.662-2.712-9.1-.175-14.612 3.413-7.263 9.275-7.438 10.5-14.175.613-3.15-.35-4.813 1.225-7.263 1.313-2.012 4.025-4.287 7.438-4.025 2.712.35 4.462 2.013 4.987 2.625z" fill="#1A202E"/><path d="M30.364 44.384c-.613 0-1.225-.087-1.663-.437-3.062-1.75-2.625-9.538-.262-14.7 1.575-3.413 3.762-5.338 5.687-7 2.188-1.925 4.113-3.588 4.813-7.175.175-1.138.175-2.1.262-2.975 0-1.487 0-2.713 1.05-4.375 1.313-2.1 4.113-4.375 7.525-4.025 2.45.263 4.2 1.662 4.988 2.537v.088c-1.663 4.725-3.15 7-4.725 7h-.088c-.35 0-.612-.088-.875-.262-.35-.088-.525-.176-.7-.088-.262.175-.087.7.175 1.4.35.962.788 2.275.35 3.5-.35 1.137-1.225 1.75-1.925 2.275-.175.087-.262.175-.437.262-2.188 1.663-3.063 3.85-4.9 8.225-1.488 3.588-1.75 6.038-2.013 7.963-.262 2.1-.437 3.675-2.1 5.25-1.312 1.487-3.412 2.537-5.162 2.537zM47.076 3.96c-3.062 0-5.512 2.1-6.737 3.938-.963 1.575-.963 2.8-.963 4.2 0 .875 0 1.837-.262 2.975-.7 3.587-2.625 5.337-4.9 7.262-1.925 1.663-4.025 3.5-5.6 6.913-2.625 5.687-2.625 12.862.175 14.437 1.837 1.05 4.9-.175 6.737-1.925 1.575-1.487 1.75-2.975 2.013-5.075.262-2.012.525-4.462 2.012-8.05 1.838-4.375 2.8-6.562 4.988-8.312.087-.088.262-.175.437-.263.788-.525 1.575-1.137 1.838-2.187.35-1.225-.088-2.45-.35-3.413-.263-.787-.438-1.4-.088-1.662.263-.175.525-.088.875.087.263.088.525.175.788.175 1.4 0 2.887-2.274 4.462-6.825-.787-.787-2.45-2.187-4.812-2.45-.175.263-.35.175-.613.175z" fill="#1A202E"/><path d="M36.316 4.31c0 .962 3.938 1.487 4.638 1.575 1.575.175 4.025.612 4.462-.263.263-.612-.7-1.837-1.75-2.45-.262-.175-1.05-.525-2.712-.437-1.925.087-4.638.787-4.638 1.575z" fill="#1A202E"/><path d="M54.427 58.034c-.087 0-.087-.087-.087-.087l.875-7.263c0-.087.087-.087.087-.087.088 0 .088.087.088.087l-.875 7.263c0 .087-.088.087-.088.087z" fill="#000"/><path d="M135.451 80.084c-.262 2.188-1.4 11.375-9.275 17.763-8.662 6.999-18.987 5.337-23.274 4.637-3.85-.613-10.15-1.663-14-6.912-2.363-3.238-4.025-8.575-2.013-10.938 1.838-2.012 4.988.088 11.9.263 10.5.175 18.375-4.288 21.175-5.863a42.773 42.773 0 0 0 8.487-6.562c2.363 2.537 4.638 5.075 7 7.612z" fill="#F7E3BF"/><path d="M146.213 71.334l.613 2.275c-1.05 1.05-2.538 2.275-4.638 2.975-1.487.525-3.325.7-3.325.7s2.8-1.05 4.725.175c.788.525 1.488 1.4 1.225 1.837-.087.175-.35.35-2.8 0-2.1-.35-2.362-.612-3.237-.612-.788 0-2.013.35-3.413 1.837-.612-.087-4.812-.612-6.825-4.112-.262-.525-2.012-3.413-.7-6.038.875-1.575 2.45-2.275 3.325-2.625 3.238-1.312 6.388 0 7.263.35.437.175.787.35 1.05.438-.088.35-.263.875 0 1.312.437.7 1.575.7 2.712.7.613 0 1.313-.087 2.275-.262.7-.175 1.488.262 1.75 1.05zM113.93 98.809c2.187 1.662 4.375 3.325 6.65 5.075 0 .962.175 2.537.7 4.2.787 2.275 1.925 3.5 5.162 7.525.7.875 1.75 2.187 2.975 3.85h6.825c-.087-.438-.437-1.225-1.137-2.013a4.654 4.654 0 0 0-2.188-1.225c-1.487-1.75-4.287-5.6-5.425-11.375-1.137-5.775 0-10.5.7-12.687l-14.262 6.65z" fill="#F7E3BF"/><path d="M121.98 103.271c-1.838 3.762-3.675 7.437-5.513 11.2-.7 0-1.662 0-2.712-.263-.525-.087-4.637-1.05-5.337-3.937-.175-.788-.175-2.013.525-2.538.962-.7 2.8.175 3.762 1.05.525.438.788.875.963 1.225.874-3.325 1.662-6.65 2.537-9.975l5.775 3.238zM74.465 117.446c-1.313-1.4.787-7 5.25-10.588 2.1-1.662 3.15-1.662 5.95-3.237.087 0 .087-.088.175-.088 2.625-1.487 4.725-3.062 6.475-4.725.875-.787 1.575-1.575 2.187-2.275l-4.987-12.862c-.875-.088-4.988-.35-8.138 2.537-2.625 2.363-3.062 5.6-3.325 7.088-.35 2.537.263 3.237 0 5.6-.175 1.837-.875 4.55-3.15 7.7-.962 0-2.362.262-3.325 1.225-1.137 1.137-1.05 2.8-1.05 5.425 0 1.575-.087 3.675-.437 6.125h7.525a3.135 3.135 0 0 0-.613-.875c-.962-.875-2.1-.525-2.537-1.05z" fill="#F7E3BF"/><path d="M85.402 102.395c.088.438.175.788.263 1.225.175.875.437 1.75.787 2.625 1.488 4.2 3.763 7.263 5.6 9.188.7 1.312 1.488 2.625 2.188 3.937h6.737c.088-.437.088-.875-.175-1.312-.525-.7-1.575-.613-2.45-.875-1.75-.525-2.712-2.45-3.5-4.113-1.575-3.325-.875-5.337-1.837-10.85a20.965 20.965 0 0 0-.7-3.412c-.088-.525-.175-.875-.263-1.225l-6.65 4.812zM88.99 84.809c0-1.75-8.05-.613-12.337-6.388-3.237-4.375-5.425-7.787-5.425-7.787-.787-1.313-1.312-2.275-1.837-2.188-1.05.263-.263 5.863-.088 6.913.263 2.1.613 2.975 1.313 3.237.962.438 2.362-.262 2.625.088.087.175-.088.35-.088.35-.612.875-1.487 2.362-1.575 2.887-.35 1.225 1.75 3.15 3.763 4.2 5.6 3.15 13.562.438 13.65-1.312z" fill="#F7E3BF"/><path d="M133.179 76.409c-.963 0-2.013-.175-2.975-.613a5.651 5.651 0 0 1-2.45-2.1v-.174h.175c.612.874 1.487 1.575 2.362 2.012 1.663.787 3.763.787 4.9.262a1.793 1.793 0 0 0 1.05-.875c.175-.35 0-.7-.787-2.537-.35-.875-.963-2.013-1.575-3.5 0-.088 0-.088.087-.175.088 0 .088 0 .175.087.7 1.488 1.225 2.713 1.575 3.5.875 1.925.963 2.275.788 2.713-.175.438-.525.7-1.138.963-.7.35-1.4.437-2.187.437zM120.751 105.983c-.087 0-.087 0-.087-.087l-.7-2.713c-1.837-.787-3.587-1.662-5.162-2.8a26.782 26.782 0 0 1-5.075-4.374v-.175h.175c1.487 1.662 3.237 3.062 5.075 4.374 1.662 1.138 3.412 2.013 5.249 2.8 0 0 .088 0 .088.088l.7 2.8c-.175 0-.175 0-.263.087zM85.666 103.796c-.088 0-.088 0-.088-.088 0-.087 0-.087.088-.174.262-.088 6.475-1.838 8.487-7.875 1.313-4.113-.087-7.613-.787-8.925 0-.088 0-.088.087-.175.088 0 .088 0 .175.087.7 1.313 2.1 4.9.788 9.1-2.1 6.125-8.4 7.962-8.75 8.05.087 0 .087 0 0 0zM80.24 87.697c-.088 0-.088-.088-.088-.088 0-.087.088-.087.088-.087l2.362-.088c.088 0 .088.088.088.088 0 .087-.088.087-.088.087l-2.362.088zM74.29 79.559l-1.226-.35c-.087 0-.087-.088-.087-.175 0-.088.087-.088.175-.088l1.137.35c.088 0 .088.088.088.175 0 .088-.088.088-.088.088zM72.455 77.808l-1.75-.087c-.088 0-.088-.088-.088-.088 0-.087.088-.087.088-.087l1.75.087c.087 0 .087.088.087.088.088.087 0 .087-.087.087z" fill="#000"/><path d="M143.589 71.071c.088.263 1.05-.35 2.013.175.437.263.612.613.787.525.088-.087 0-.437-.087-.7-.175-.35-.613-.962-1.313-.962-.875 0-1.575.787-1.4.962z" fill="#1A202E"/><path d="M137.288 72.647c-.087 0-.087 0-.087-.088-.088-.262-.088-.437-.088-.7 0-.437.088-.962.263-1.4 0-.087.087-.087.175-.087.087 0 .087.087.087.175-.087.262-.262.787-.262 1.312 0 .175.087.438.087.613l-.175.175z" fill="#000"/><path d="M137.291 72.296s-.088 0-.088-.088v-.174l1.225-.7h.175v.174l-1.312.788c.087 0 0 0 0 0z" fill="#000"/><path d="M137.377 70.721c-.175.263 0 .7.35.963.35.262.788.262.963.087.175-.262 0-.7-.35-.962-.35-.35-.788-.35-.963-.088z" fill="#1A202E"/><path d="M143.677 77.371c-.175.613-1.05 3.15-3.238 3.763-.262.087-1.575.437-2.1-.263-.437-.525-.175-1.4-.087-1.75.437-1.4 1.837-2.1 2.275-2.275.437 0 .962-.088 1.575 0 .7.175 1.225.35 1.575.525z" fill="#F26C5A"/><path d="M139.477 77.546c-.175 0-.438 0-.613-.088-.35-.087-.7-.262-.962-.525-.088 0-.088-.087 0-.175 0-.087.087-.087.175 0 .262.175.525.35.875.438.962.263 1.75-.263 2.012-.35h.175v.175c-.262.175-.875.525-1.662.525z" fill="#000"/><path d="M135.101 84.547l.351-1.4c-2.363-.525-4.638-1.488-6.65-2.625a27.124 27.124 0 0 1-5.338-4.113l-1.05.963c1.663 1.75 3.588 3.15 5.688 4.375 2.1 1.225 4.549 2.187 6.999 2.8z" fill="#1A202E"/><path d="M104.304 80.871c-7.7 0-14.875-1.662-21.525-4.987a48.681 48.681 0 0 1-18.025-15.75v-.175h.175c4.725 6.737 10.937 12.162 17.937 15.75 17.15 8.575 33.863 4.025 40.338 1.662.087 0 .087 0 .175.088 0 .087 0 .087-.088.175-3.15 1.137-8.312 2.625-14.7 3.15-1.4.087-2.8.087-4.287.087z" fill="#000"/><path d="M65.19 61.972s.087.35.35.35c.262.087.611-.088.699-.35.438-.263.962-.438 1.4-.7-.175-.963-.787-1.75-1.662-1.925-.875-.175-1.575.262-1.75.35.262.525.7 1.487.962 2.275z" fill="#F26C5A"/><path d="M66.24 62.847c-.088 0-.088 0 0 0-.088-.087-.088-.087-.088-.175l1.225-1.837c0-.088.088-.088.175 0 .088 0 .088.087 0 .175l-1.225 1.837h-.087zM65.367 61.884c-.087 0-.087 0-.087-.087l-.35-1.488c0-.087 0-.087.087-.175.088 0 .088 0 .175.088l.35 1.487c-.087.088-.087.175-.175.175z" fill="#000"/><path d="M52.766 32.397c.35 2.012.612 3.937.962 5.95.525.174 1.05.437 1.488.612.787.35 1.662.612 2.45.962.175-.437.437-.787.612-1.137 0-.175-.087-.875-.35-1.837-.437-1.4-1.312-3.238-3.15-4.113-.612-.175-1.225-.438-2.012-.438z" fill="#F26C5A"/></svg>